<?xml version="1.0" encoding="UTF-8"?>
<svg id="Calque_1" data-name="Calque 1" xmlns="http://www.w3.org/2000/svg" xmlns:xlink="http://www.w3.org/1999/xlink" viewBox="0 0 712.09 712.09">
  <defs>
    <linearGradient id="Dégradé_sans_nom_37" data-name="Dégradé sans nom 37" x1="118.29" y1="406.37" x2="469.58" y2="316.17" gradientUnits="userSpaceOnUse">
      <stop offset="0" stop-color="#0c86f3"/>
      <stop offset="1" stop-color="#5afdc8"/>
    </linearGradient>
    <linearGradient id="Dégradé_sans_nom_37-2" data-name="Dégradé sans nom 37" x1="120.8" y1="416.15" x2="472.1" y2="325.96" xlink:href="#Dégradé_sans_nom_37"/>
    <filter id="outer-glow-1" x="278.85" y="117.62" width="343.47" height="337.17" filterUnits="userSpaceOnUse">
      <feOffset dx="0" dy="0"/>
      <feGaussianBlur result="blur" stdDeviation="52"/>
      <feFlood flood-color="#a5f9df" flood-opacity=".74"/>
      <feComposite in2="blur" operator="in"/>
      <feComposite in="SourceGraphic"/>
    </filter>
    <filter id="outer-glow-2" x="-66.68" y="-38.96" width="846" height="790" filterUnits="userSpaceOnUse">
      <feOffset dx="0" dy="0"/>
      <feGaussianBlur result="blur-2" stdDeviation="52"/>
      <feFlood flood-color="#a5f9df" flood-opacity=".25"/>
      <feComposite in2="blur-2" operator="in"/>
      <feComposite in="SourceGraphic"/>
    </filter>
    <linearGradient id="Dégradé_sans_nom_37-3" data-name="Dégradé sans nom 37" x1="118.29" y1="406.37" x2="469.58" y2="316.17" xlink:href="#Dégradé_sans_nom_37"/>
    <linearGradient id="Dégradé_sans_nom_37-4" data-name="Dégradé sans nom 37" x1="120.8" y1="416.15" x2="472.1" y2="325.96" xlink:href="#Dégradé_sans_nom_37"/>
    <filter id="outer-glow-3" x="278.85" y="117.62" width="343.47" height="337.17" filterUnits="userSpaceOnUse">
      <feOffset dx="0" dy="0"/>
      <feGaussianBlur result="blur-3" stdDeviation="52"/>
      <feFlood flood-color="#a5f9df" flood-opacity=".74"/>
      <feComposite in2="blur-3" operator="in"/>
      <feComposite in="SourceGraphic"/>
    </filter>
  </defs>
  <rect width="712.09" height="712.09" rx="152.14" ry="152.14" style="fill: #06242f;"/>
  <g>
    <g>
      <path d="M149.76,306.9c0,23.63,9.47,47.18,25.99,64.62l.25.27,130.71,126.53c9.27,8.98,21.16,13.46,33.05,13.46,11.92,0,23.84-4.51,33.12-13.53l144.58-140.52-21.8-26.68-146.7,142.58c-5.15,5-13.21,5.01-18.37.02l-130.16-125.99c-10.39-11.09-16.34-25.93-16.34-40.75,0-32.54,26.47-59.01,59.01-59.01,7.35,0,14.45,1.32,21.1,3.86.35-.8.71-1.61,1.1-2.43,1.49-3.42,3.07-6.48,4.47-9.19.32-.63.65-1.26.97-1.89.16-.31.33-.63.5-.93.7-1.27,1.43-2.53,2.15-3.78l.68-1.18c1.31-2.34,2.63-4.41,3.78-6.18.04-.06.08-.12.12-.18.25-.38.49-.76.73-1.14.61-.96,1.33-2.1,2.2-3.35-11.76-5.22-24.52-7.93-37.79-7.93-51.47,0-93.34,41.87-93.34,93.34Z" style="fill: url(#Dégradé_sans_nom_37);"/>
      <path d="M350.61,555.69l-.08.08c-5.94,5.85-15.28,5.89-21.26.09l-171.44-165.95c-21.76-22.57-33.74-52.04-33.74-83.02,0-65.62,53.39-119.01,119.01-119.01,19.18,0,37.53,4.44,54.13,12.97,8.16-8.97,17.15-17.05,26.8-24.19-24.16-14.99-52.29-23.1-80.93-23.1-84.55,0-153.34,68.79-153.34,153.34,0,40.03,15.48,78.06,43.59,107.09l.19.2,171.84,166.34c9.3,9,21.52,13.95,34.46,13.95h.22c12.99-.06,25.24-5.1,34.5-14.19l181-175.91-21.8-26.68-183.16,178.01Z" style="fill: url(#Dégradé_sans_nom_37-2);"/>
    </g>
    <path d="M319.83,314.99h14.64v16.66c0,3.65-2.97,6.62-6.62,6.62h-1.39c-3.65,0-6.62-2.97-6.62-6.62v-16.66h0Z" transform="translate(.52 653.77) rotate(-90)"/>
    <g style="filter: url(#outer-glow-1);">
      <path d="M433.95,306.28c-4.56.3-9.04,2.15-12.59,5.55-7.76,7.43-8.3,19.97-1.15,27.99,7.79,8.73,21.19,9.02,29.35.86,3.51-3.51,5.45-7.99,5.82-12.58.41-4.97,1.77-9.81,4.4-14.04l15.85-25.45-27.81,14.09c-4.31,2.18-9.05,3.26-13.87,3.58Z" style="fill: #57f7cb;"/>
      <path d="M619.84,237.09l-45.11,21.49c-3.39-7.02-7.26-13.79-11.58-20.27-4.4-6.43-9.25-12.54-14.49-18.29l-.61.56c-.08-.09-.16-.17-.24-.25l8.2-8.2,4.9,4.9c2.78,2.78,7.29,2.78,10.07,0l7.53-7.53c2.78-2.78,2.78-7.29,0-10.07l-24.01-24.01c-2.78-2.78-7.29-2.78-10.07,0l-7.53,7.53c-2.78,2.78-2.78,7.29,0,10.07l4.9,4.9-8.57,8.57c-.35-.3-.69-.6-1.05-.9-5.65-4.6-11.62-8.79-17.81-12.63-6.26-3.72-12.73-7.11-19.43-9.99-1.67-.73-3.38-1.36-5.07-2.04l-2.55-1-2.59-.88c-1.73-.58-3.45-1.19-5.19-1.73l-5.26-1.5c-7.05-1.84-14.21-3.35-21.45-4.15l-2.62-.33v-17.59h10.06c5.71,0,10.34-4.63,10.34-10.34v-15.46c0-5.71-4.63-10.34-10.34-10.34h-49.32c-5.71,0-10.34,4.63-10.34,10.34v15.46c0,5.71,4.63,10.34,10.34,10.34h10.06v17.31l-.86.07c-1.82.11-3.62.35-5.43.58-1.8.25-3.62.42-5.41.74-7.2,1.15-14.3,2.86-21.29,4.95-27.9,8.62-53.14,25.33-72.02,47.5l-1.78,2.07-1.69,2.14c-1.11,1.44-2.28,2.84-3.34,4.32l-3.17,4.45c-1.07,1.47-2,3.05-3,4.57-.99,1.53-1.97,3.06-2.85,4.66-.91,1.58-1.83,3.15-2.71,4.75-1.66,3.25-3.39,6.46-4.83,9.81-1.56,3.29-2.85,6.71-4.18,10.1-.63,1.71-1.19,3.45-1.78,5.17l-.87,2.59-.75,2.63c-2.11,6.98-3.53,14.16-4.62,21.36l-.69,5.42c-.21,1.81-.3,3.63-.46,5.44-.35,3.63-.32,7.27-.43,10.9.09,3.63.18,7.27.37,10.9l.51,5.44c.2,1.81.3,3.63.63,5.42,2.03,14.43,6.1,28.59,12.05,41.9l1.09,2.51,1.23,2.44,2.48,4.87.62,1.22.69,1.18,1.38,2.36,2.78,4.7,3.04,4.54c1.03,1.5,1.99,3.05,3.13,4.47l3.32,4.34c.56.72,1.09,1.46,1.68,2.15l1.78,2.07c1.87,2.2,3.82,4.33,5.81,6.43l-.18.17,4.35,4.45c1.48,1.45,3.05,2.81,4.57,4.22l.15-.16.28.25c.13.11.25.23.38.35l2.09,1.89,1.74,1.41c.86.72,1.73,1.41,2.61,2.11l.55.44.85.68c.16.13.32.26.48.39l1.13.9,1.74,1.25c1.96,1.45,3.94,2.87,5.96,4.22l29.36-25.83-8.94-4.89-3.91-2.79-.74-.53c-.71-.53-1.42-1.05-2.12-1.59l-.97-.78-2.31-1.86c-.2-.16-.38-.34-.58-.51l11.17-11.17c2.86-2.86,2.86-7.49,0-10.35-2.86-2.86-7.49-2.86-10.35,0l-11.43,11.43c-1.21-1.3-2.4-2.63-3.55-3.99l-1.37-1.57c-.46-.52-.85-1.1-1.28-1.65l-2.53-3.31c-.88-1.07-1.6-2.27-2.39-3.41l-2.33-3.45-2.11-3.59-1.06-1.79-.53-.9-.47-.93-1.89-3.71-.95-1.85-.82-1.91c-4.52-10.13-7.62-20.88-9.17-31.87-.27-1.36-.32-2.76-.47-4.14l-.38-3.9h15.42c4.04,0,7.32-3.28,7.32-7.32s-3.28-7.32-7.32-7.32h-15.56c.04-.76.09-1.53.17-2.29.12-1.38.17-2.78.34-4.15l.53-4.13h.01c3.11-21.98,12.62-42.97,27.09-59.86,1.3-1.53,2.66-3.02,4.04-4.48l11.5,11.5c2.86,2.86,7.49,2.86,10.35,0,2.86-2.86,2.86-7.49,0-10.35l-11.16-11.16c11.83-9.75,25.53-17.22,40.15-21.74l-.25-.79.25.81c9.49-2.94,19.4-4.63,29.37-5.09v15.84c0,4.04,3.28,7.32,7.32,7.32s7.32-3.28,7.32-7.32v-15.62c7.36.55,14.66,1.77,21.77,3.67l4,1.13c1.32.41,2.63.89,3.94,1.32l1.97.66,1.93.77c1.28.52,2.59.99,3.86,1.55,5.1,2.19,10.02,4.78,14.8,7.6,4.71,2.94,9.27,6.13,13.58,9.64,1.29,1.09,2.56,2.2,3.82,3.32l-10.55,10.55c-2.86,2.86-2.86,7.49,0,10.35,2.86,2.86,7.49,2.86,10.35,0l11.1-11.1c7.21,8.19,13.24,17.38,17.92,27.21l-38.33,18.27,70.89,87.4c2.33,3.28,4.24,5.2,4.24,5.2,0,0,56.46-63.95,41.62-148.21ZM307.81,307.43l-4.99-.71,5.01.71,8.29,1.18-8.31-1.18Z" style="fill: #57f7cb;"/>
    </g>
  </g>
  <g style="filter: url(#outer-glow-2);">
    <g>
      <path d="M149.76,306.9c0,23.63,9.47,47.18,25.99,64.62l.25.27,130.71,126.53c9.27,8.98,21.16,13.46,33.05,13.46,11.92,0,23.84-4.51,33.12-13.53l144.58-140.52-21.8-26.68-146.7,142.58c-5.15,5-13.21,5.01-18.37.02l-130.16-125.99c-10.39-11.09-16.34-25.93-16.34-40.75,0-32.54,26.47-59.01,59.01-59.01,7.35,0,14.45,1.32,21.1,3.86.35-.8.71-1.61,1.1-2.43,1.49-3.42,3.07-6.48,4.47-9.19.32-.63.65-1.26.97-1.89.16-.31.33-.63.5-.93.7-1.27,1.43-2.53,2.15-3.78l.68-1.18c1.31-2.34,2.63-4.41,3.78-6.18.04-.06.08-.12.12-.18.25-.38.49-.76.73-1.14.61-.96,1.33-2.1,2.2-3.35-11.76-5.22-24.52-7.93-37.79-7.93-51.47,0-93.34,41.87-93.34,93.34Z" style="fill: url(#Dégradé_sans_nom_37-3);"/>
      <path d="M350.61,555.69l-.08.08c-5.94,5.85-15.28,5.89-21.26.09l-171.44-165.95c-21.76-22.57-33.74-52.04-33.74-83.02,0-65.62,53.39-119.01,119.01-119.01,19.18,0,37.53,4.44,54.13,12.97,8.16-8.97,17.15-17.05,26.8-24.19-24.16-14.99-52.29-23.1-80.93-23.1-84.55,0-153.34,68.79-153.34,153.34,0,40.03,15.48,78.06,43.59,107.09l.19.2,171.84,166.34c9.3,9,21.52,13.95,34.46,13.95h.22c12.99-.06,25.24-5.1,34.5-14.19l181-175.91-21.8-26.68-183.16,178.01Z" style="fill: url(#Dégradé_sans_nom_37-4);"/>
    </g>
    <path d="M319.83,314.99h14.64v16.66c0,3.65-2.97,6.62-6.62,6.62h-1.39c-3.65,0-6.62-2.97-6.62-6.62v-16.66h0Z" transform="translate(.52 653.77) rotate(-90)"/>
    <g style="filter: url(#outer-glow-3);">
      <path d="M433.95,306.28c-4.56.3-9.04,2.15-12.59,5.55-7.76,7.43-8.3,19.97-1.15,27.99,7.79,8.73,21.19,9.02,29.35.86,3.51-3.51,5.45-7.99,5.82-12.58.41-4.97,1.77-9.81,4.4-14.04l15.85-25.45-27.81,14.09c-4.31,2.18-9.05,3.26-13.87,3.58Z" style="fill: #57f7cb;"/>
      <path d="M619.84,237.09l-45.11,21.49c-3.39-7.02-7.26-13.79-11.58-20.27-4.4-6.43-9.25-12.54-14.49-18.29l-.61.56c-.08-.09-.16-.17-.24-.25l8.2-8.2,4.9,4.9c2.78,2.78,7.29,2.78,10.07,0l7.53-7.53c2.78-2.78,2.78-7.29,0-10.07l-24.01-24.01c-2.78-2.78-7.29-2.78-10.07,0l-7.53,7.53c-2.78,2.78-2.78,7.29,0,10.07l4.9,4.9-8.57,8.57c-.35-.3-.69-.6-1.05-.9-5.65-4.6-11.62-8.79-17.81-12.63-6.26-3.72-12.73-7.11-19.43-9.99-1.67-.73-3.38-1.36-5.07-2.04l-2.55-1-2.59-.88c-1.73-.58-3.45-1.19-5.19-1.73l-5.26-1.5c-7.05-1.84-14.21-3.35-21.45-4.15l-2.62-.33v-17.59h10.06c5.71,0,10.34-4.63,10.34-10.34v-15.46c0-5.71-4.63-10.34-10.34-10.34h-49.32c-5.71,0-10.34,4.63-10.34,10.34v15.46c0,5.71,4.63,10.34,10.34,10.34h10.06v17.31l-.86.07c-1.82.11-3.62.35-5.43.58-1.8.25-3.62.42-5.41.74-7.2,1.15-14.3,2.86-21.29,4.95-27.9,8.62-53.14,25.33-72.02,47.5l-1.78,2.07-1.69,2.14c-1.11,1.44-2.28,2.84-3.34,4.32l-3.17,4.45c-1.07,1.47-2,3.05-3,4.57-.99,1.53-1.97,3.06-2.85,4.66-.91,1.58-1.83,3.15-2.71,4.75-1.66,3.25-3.39,6.46-4.83,9.81-1.56,3.29-2.85,6.71-4.18,10.1-.63,1.71-1.19,3.45-1.78,5.17l-.87,2.59-.75,2.63c-2.11,6.98-3.53,14.16-4.62,21.36l-.69,5.42c-.21,1.81-.3,3.63-.46,5.44-.35,3.63-.32,7.27-.43,10.9.09,3.63.18,7.27.37,10.9l.51,5.44c.2,1.81.3,3.63.63,5.42,2.03,14.43,6.1,28.59,12.05,41.9l1.09,2.51,1.23,2.44,2.48,4.87.62,1.22.69,1.18,1.38,2.36,2.78,4.7,3.04,4.54c1.03,1.5,1.99,3.05,3.13,4.47l3.32,4.34c.56.72,1.09,1.46,1.68,2.15l1.78,2.07c1.87,2.2,3.82,4.33,5.81,6.43l-.18.17,4.35,4.45c1.48,1.45,3.05,2.81,4.57,4.22l.15-.16.28.25c.13.11.25.23.38.35l2.09,1.89,1.74,1.41c.86.72,1.73,1.41,2.61,2.11l.55.44.85.68c.16.13.32.26.48.39l1.13.9,1.74,1.25c1.96,1.45,3.94,2.87,5.96,4.22l29.36-25.83-8.94-4.89-3.91-2.79-.74-.53c-.71-.53-1.42-1.05-2.12-1.59l-.97-.78-2.31-1.86c-.2-.16-.38-.34-.58-.51l11.17-11.17c2.86-2.86,2.86-7.49,0-10.35-2.86-2.86-7.49-2.86-10.35,0l-11.43,11.43c-1.21-1.3-2.4-2.63-3.55-3.99l-1.37-1.57c-.46-.52-.85-1.1-1.28-1.65l-2.53-3.31c-.88-1.07-1.6-2.27-2.39-3.41l-2.33-3.45-2.11-3.59-1.06-1.79-.53-.9-.47-.93-1.89-3.71-.95-1.85-.82-1.91c-4.52-10.13-7.62-20.88-9.17-31.87-.27-1.36-.32-2.76-.47-4.14l-.38-3.9h15.42c4.04,0,7.32-3.28,7.32-7.32s-3.28-7.32-7.32-7.32h-15.56c.04-.76.09-1.53.17-2.29.12-1.38.17-2.78.34-4.15l.53-4.13h.01c3.11-21.98,12.62-42.97,27.09-59.86,1.3-1.53,2.66-3.02,4.04-4.48l11.5,11.5c2.86,2.86,7.49,2.86,10.35,0,2.86-2.86,2.86-7.49,0-10.35l-11.16-11.16c11.83-9.75,25.53-17.22,40.15-21.74l-.25-.79.25.81c9.49-2.94,19.4-4.63,29.37-5.09v15.84c0,4.04,3.28,7.32,7.32,7.32s7.32-3.28,7.32-7.32v-15.62c7.36.55,14.66,1.77,21.77,3.67l4,1.13c1.32.41,2.63.89,3.94,1.32l1.97.66,1.93.77c1.28.52,2.59.99,3.86,1.55,5.1,2.19,10.02,4.78,14.8,7.6,4.71,2.94,9.27,6.13,13.58,9.64,1.29,1.09,2.56,2.2,3.82,3.32l-10.55,10.55c-2.86,2.86-2.86,7.49,0,10.35,2.86,2.86,7.49,2.86,10.35,0l11.1-11.1c7.21,8.19,13.24,17.38,17.92,27.21l-38.33,18.27,70.89,87.4c2.33,3.28,4.24,5.2,4.24,5.2,0,0,56.46-63.95,41.62-148.21ZM307.81,307.43l-4.99-.71,5.01.71,8.29,1.18-8.31-1.18Z" style="fill: #57f7cb;"/>
    </g>
  </g>
</svg>