<?xml version="1.0" encoding="UTF-8"?>
<svg id="Calque_1" data-name="Calque 1" xmlns="http://www.w3.org/2000/svg" viewBox="0 0 231.22 81.84">
  <path d="M13.26,11.53H0V0h39.19v11.53h-13.26v69.16h-12.68V11.53Z" style="fill: #e9f2fb;"/>
  <path d="M45.3,0h34.58v11.53h-21.9v21.32h17.4v11.53h-17.4v24.78h21.9v11.53h-34.58V0Z" style="fill: #e9f2fb;"/>
  <path d="M87.14,0h18.1l8.07,57.75h.23L121.6,0h18.1v80.69h-11.99V19.6h-.23l-9.22,61.09h-10.6l-9.22-61.09h-.23v61.09h-11.07V0Z" style="fill: #e9f2fb;"/>
  <path d="M149.15,0h18.67c12.68,0,18.9,7.03,18.9,19.94v7.95c0,12.91-6.22,19.94-18.9,19.94h-5.99v32.85h-12.68V0ZM167.82,36.31c4.03,0,6.22-1.84,6.22-7.61v-9.57c0-5.76-2.19-7.61-6.22-7.61h-5.99v24.78h5.99Z" style="fill: #e9f2fb;"/>
  <path d="M192.72,61.55V19.13c0-12.91,6.8-20.29,19.25-20.29s19.25,7.38,19.25,20.29v42.42c0,12.91-6.8,20.29-19.25,20.29s-19.25-7.38-19.25-20.29ZM218.54,62.36V18.33c0-5.76-2.54-7.95-6.57-7.95s-6.57,2.19-6.57,7.95v44.03c0,5.76,2.54,7.95,6.57,7.95s6.57-2.19,6.57-7.95Z" style="fill: #e9f2fb;"/>
</svg>